{"title":"Crush.2009.DVDRip.H264.FEEL-FREE","uid":5696125,"size":986096498,"categoryP":"video","categoryS":"movies","magnet":"?xt=urn:btih:dce3d5693cd05087610adc2c784b22a77f0d8c89&amp;dn=Crush.2009.DVDRip.H264.FEEL-FREE&amp;tr=udp%3A%2F%2Ftracker.openbittorrent.com%3A80&amp;tr=udp%3A%2F%2Fopen.demonii.com%3A1337&amp;tr=udp%3A%2F%2Ftracker.coppersurfer.tk%3A6969&amp;tr=udp%3A%2F%2Fexodus.desync.com%3A6969","seeders":0,"leechers":1,"uploader":"neon","files":7,"time":1279310967,"description":"Genre:Horror | Mystery | Thriller\nLanguage:English\nIMDb:http://www.imdb.com/title/tt1170350/\nSource:DVDR\nEncoder: Tony2\n..............................................\nGeneral\nComplete name : Crush.2009.DVDRip.H264.FEEL-FREE\nFormat : MPEG-4\nFormat profile : Base Media\nCodec ID : isom\nFile size : 939 MiB\nDuration : 1h 20mn\nOverall bit rate : 1 635 Kbps\n...............................................\nVideo\nID : 1\nFormat : AVC\nFormat/Info : Advanced Video Codec\nFormat profile : &lt;a class=&quot;__cf_email__&quot; href=&quot;/cdn-cgi/l/email-protection&quot; data-cfemail=&quot;90d2f1e3f5fcf9fef5d0dca5bea1&quot;&gt;[email&amp;#160;protected]&lt;/a&gt;&lt;script cf-hash='f9e31' type=&quot;text/javascript&quot;&gt;\n/* &lt;![CDATA[ */!function(){try{var t=&quot;currentScript&quot;in document?document.currentScript:function(){for(var t=document.getElementsByTagName(&quot;script&quot;),e=t.length;e--;)if(t[e].getAttribute(&quot;cf-hash&quot;))return t[e]}();if(t&amp;&amp;t.previousSibling){var e,r,n,i,c=t.previousSibling,a=c.getAttribute(&quot;data-cfemail&quot;);if(a){for(e=&quot;&quot;,r=parseInt(a.substr(0,2),16),n=2;a.length-n;n+=2)i=parseInt(a.substr(n,2),16)^r,e+=String.fromCharCode(i);e=document.createTextNode(e),c.parentNode.replaceChild(e,c)}}}catch(u){}}();/* ]]&gt; */&lt;/script&gt;\nFormat settings, CABAC : No\nFormat settings, ReFrames : 1 frame\nCodec ID : avc1\nCodec ID/Info : Advanced Video Coding\nDuration : 1h 20mn\nBit rate mode : Variable\nBit rate : 1 502 Kbps\nWidth : 644 pixels\nHeight : 302 pixels\nDisplay aspect ratio : 2.2:1\nFrame rate mode : Constant\nFrame rate : 23.976 fps\nResolution : 24 bits\nColorimetry : 4:2:0\nScan type : Progressive\nBits/(Pixel*Frame) : 0.322\nStream size : 863 MiB (92%)\n..............................................\nAudio\nID : 2\nFormat : AAC\nFormat/Info : Advanced Audio Codec\nFormat version : Version 4\nFormat profile : LC\nFormat settings, SBR : No\nCodec ID : 40\nDuration : 1h 20mn\nBit rate mode : Variable\nBit rate : 128 Kbps\nChannel(s) : 2 channels\nChannel positions : L R\nSampling rate : 48.0 KHz\nResolution : 16 bits\nStream size : 73.5 MiB (8%)\n.............................................\nPlot:\nA university student is stalked by an obsessed girl who has supernatural powers\n &lt;a href=&quot;\nhttp://www.starshare.ro/bitbucket/Crush.2009.DVDRip.H264.FEEL-FREE.mp4_thumbs_%5B2010.07.16_19.46.01%5D.jpg&quot; rel=&quot;nofollow&quot; target=&quot;_NEW&quot;&gt;\nhttp://www.starshare.ro/bitbucket/Crush.2009.DVDRip.H264.FEEL-FREE.mp4_thumbs_%5B2010.07.16_19.46.01%5D.jpg&lt;/a&gt;","torrent":{"xt":"urn:btih:dce3d5693cd05087610adc2c784b22a77f0d8c89","amp;dn":"Crush.2009.DVDRip.H264.FEEL-FREE","amp;tr":["udp%3A%2F%2Ftracker.openbittorrent.com%3A80","udp%3A%2F%2Fopen.demonii.com%3A1337","udp%3A%2F%2Ftracker.coppersurfer.tk%3A6969","udp%3A%2F%2Fexodus.desync.com%3A6969"],"infoHash":"dce3d5693cd05087610adc2c784b22a77f0d8c89","infoHashBuffer":{"type":"Buffer","data":[220,227,213,105,60,208,80,135,97,10,220,44,120,75,34,167,127,13,140,137]},"announce":[],"urlList":[]}}